<svg width="263" height="263" viewBox="0 0 263 263" fill="none" xmlns="http://www.w3.org/2000/svg">
    <rect x="42" y="55" width="207" height="196" fill="#FC3F1D" />
    <path
        d="M0 0V262.5H262.5V0H0ZM142.383 205.078C142.383 230.273 127.734 241.992 105.469 241.992C86.1328 241.992 74.4141 232.031 68.5547 219.727L89.0625 207.422C92.5781 214.453 96.0938 220.312 104.883 220.312C112.5 220.312 117.773 216.797 117.773 204.492V120.703H142.383V205.078ZM200.977 241.992C178.125 241.992 163.477 231.445 155.859 216.797L176.367 205.664C181.641 213.867 188.086 220.312 200.391 220.312C210.352 220.312 217.383 215.039 217.383 208.008C217.383 199.805 210.352 196.875 199.219 191.602L192.773 189.258C175.195 181.641 163.477 172.266 163.477 151.758C163.477 133.594 177.539 119.531 199.805 119.531C215.039 119.531 226.758 124.805 234.375 138.867L215.625 151.172C210.938 144.141 206.836 140.625 199.219 140.625C192.188 140.625 187.5 145.312 187.5 151.172C187.5 158.789 192.188 161.719 202.734 166.406L209.18 169.336C230.273 178.125 241.992 187.5 241.992 208.008C241.992 230.273 224.414 241.992 200.977 241.992Z"
        fill="#FCCA00" />
    <rect x="32" y="85.75" width="115" height="165" fill="#FCCA00" />
    <path
        d="M156.905 128C156.905 128 157.89 129.116 158 130C159.5 142 156.905 159.5 156.905 159.5C154.405 156.5 153 156 150.137 157.521V212.151C150.137 228.912 136.452 242.5 119.569 242.5C102.686 242.5 89 228.912 89 212.151C89 195.39 102.686 181.803 119.569 181.803C125.896 181.803 131.774 183.711 136.651 186.98V124.5C142.5 123 151.5 123.5 156.905 128Z"
        fill="#FC3F1D" />
</svg>